<?xml version="1.0" encoding="UTF-8" standalone="no"?>
<svg
   width="512"
   height="512"
   viewBox="0 0 512 512"
   fill="none"
   version="1.1"
   id="svg8"
   xmlns="http://www.w3.org/2000/svg">
  <path
     id="rect2"
     style="fill:#000000;stroke-width:1.11696"
     d="M 44.326172,0 C 19.769646,0 0,19.769646 0,44.326172 V 315.94336 c 0,24.55653 19.769646,44.32617 44.326172,44.32617 H 290.24219 v -31.91211 c 0,-22.91346 18.70763,-41.62109 41.62109,-41.62109 h 22.74414 V 149.16602 c -2.69764,-0.0357 -5.43819,-0.0625 -8.30859,-0.0625 -15.42187,-9e-5 -27.92374,-12.50196 -27.92383,-27.92383 9e-5,-15.42187 12.50196,-27.923737 27.92383,-27.923831 2.84699,0 5.58426,0.02246 8.30859,0.04883 V 44.326172 C 354.60742,19.769646 334.83778,0 310.28125,0 Z M 76.845703,123.10547 H 243.06836 c 6.16905,-1.8e-4 11.1701,5.00087 11.16992,11.16992 1.8e-4,6.16905 -5.00087,11.1701 -11.16992,11.16992 H 76.845703 c -6.16905,1.8e-4 -11.170099,-5.00087 -11.169922,-11.16992 -1.77e-4,-6.16905 5.000872,-11.1701 11.169922,-11.16992 z m 0,56.29297 H 243.06836 c 6.16905,-1.8e-4 11.1701,5.00087 11.16992,11.16992 -9e-4,6.16829 -5.00163,11.16815 -11.16992,11.16797 H 76.845703 c -6.168289,1.8e-4 -11.169022,-4.99968 -11.169922,-11.16797 -1.77e-4,-6.16905 5.000872,-11.1701 11.169922,-11.16992 z m 0,56.29101 h 88.652347 c 6.16905,-1.8e-4 11.1701,5.00088 11.16992,11.16993 1.8e-4,6.16904 -5.00087,11.1701 -11.16992,11.16992 H 76.845703 c -6.16905,1.8e-4 -11.170099,-5.00087 -11.169922,-11.16992 -1.82e-4,-6.16905 5.000868,-11.17011 11.169922,-11.16993 z"
      />
  <path
     style="fill:#000000;stroke-linecap:round"
     d="m 346.29883,104.42578 a 16.7544,16.7544 0 0 0 -16.75391,16.75391 16.7544,16.7544 0 0 0 16.75391,16.75586 c 27.13626,0 47.01121,1.50868 59.94922,4.49609 12.938,2.98741 17.73864,6.65365 20.23437,10.45703 2.49574,3.80339 4.08169,10.76868 2.86719,23.72461 -1.2145,12.95594 -5.16594,30.78887 -10.66797,53.14844 a 16.7544,16.7544 0 0 0 12.26563,20.27148 16.7544,16.7544 0 0 0 20.27148,-12.26562 c 5.57944,-22.67414 9.93828,-41.42991 11.49414,-58.02735 1.55586,-16.59743 0.37089,-32.15012 -8.21484,-45.23437 -8.58573,-13.08425 -23.17492,-20.67551 -40.71094,-24.72461 -17.53602,-4.0491 -39.21722,-5.35547 -67.48828,-5.35547 z"
     id="path5" />
  <path
     style="display:inline;fill:#000000;stroke-linecap:round;stroke-linejoin:round"
     d="m 404.86893,212.94531 a 11.1696,11.1696 0 0 0 -8.29687,2.0586 11.1696,11.1696 0 0 0 -2.35352,15.61914 l 33.24414,45.0332 a 11.170716,11.170716 0 0 0 17.97266,0 l 33.24609,-45.0332 a 11.1696,11.1696 0 0 0 -2.35352,-15.61914 11.1696,11.1696 0 0 0 -15.61914,2.35156 L 436.44901,250.2168 412.1912,217.35547 a 11.1696,11.1696 0 0 0 -7.32227,-4.41016 z"
     id="path2" />
  <path
     id="path11"
     style="display:inline;fill:#000000"
     d="m 331.96319,303.59 c -13.92133,0 -24.86719,10.94586 -24.86719,24.86719 v 158.67969 c 0,13.92133 10.94586,24.86719 24.86719,24.86719 h 155.14063 c 13.92133,0 24.86718,-10.94586 24.86718,-24.86719 V 328.45719 c 0,-13.92133 -10.94585,-24.86719 -24.86718,-24.86719 z m 22.16406,62.05469 h 110.81446 a 8.3772001,8.3772001 0 0 1 8.37695,8.37696 8.3772001,8.3772001 0 0 1 -8.37695,8.37695 H 354.12725 a 8.3772001,8.3772001 0 0 1 -8.3789,-8.37695 8.3772001,8.3772001 0 0 1 8.3789,-8.37696 z m 0,45.0332 h 110.81446 a 8.3772001,8.3772001 0 0 1 8.37695,8.37696 8.3772001,8.3772001 0 0 1 -8.37695,8.3789 H 354.12725 a 8.3772001,8.3772001 0 0 1 -8.3789,-8.3789 8.3772001,8.3772001 0 0 1 8.3789,-8.37696 z" />
</svg>
